<mxfile host="app.diagrams.net" modified="2023-01-06T23:25:32.025Z" agent="5.0 (Windows NT 10.0; Win64; x64) AppleWebKit/537.36 (KHTML, like Gecko) Chrome/108.0.0.0 Safari/537.36" etag="UNWjykphJQjdbLlFVszE" version="20.8.1" type="github">
  <diagram id="C5RBs43oDa-KdzZeNtuy" name="Page-1">
    <mxGraphModel dx="387" dy="887" grid="1" gridSize="10" guides="1" tooltips="1" connect="1" arrows="1" fold="1" page="1" pageScale="1" pageWidth="827" pageHeight="1169" math="0" shadow="0">
      <root>
        <mxCell id="WIyWlLk6GJQsqaUBKTNV-0" />
        <mxCell id="WIyWlLk6GJQsqaUBKTNV-1" parent="WIyWlLk6GJQsqaUBKTNV-0" />
        <mxCell id="RFLqyy4pMrzeT3K8V6dZ-0" value="&lt;p style=&quot;margin:0px;margin-top:4px;text-align:center;&quot;&gt;&lt;br&gt;&lt;b&gt;Biblioteca&lt;/b&gt;&lt;/p&gt;&lt;hr size=&quot;1&quot;&gt;&lt;p style=&quot;margin: 0px 0px 0px 4px;&quot;&gt;- _pessoa { get; set; } : Pessoa&lt;/p&gt;&lt;p style=&quot;margin: 0px 0px 0px 4px;&quot;&gt;- _listaLivros { get; set; } : List&amp;lt;Livro&amp;gt;&lt;/p&gt;&lt;p style=&quot;margin: 0px 0px 0px 4px;&quot;&gt;- _historico { get; set; } : Historico&lt;/p&gt;&lt;br&gt;&lt;hr size=&quot;1&quot;&gt;&lt;p style=&quot;margin:0px;margin-left:4px;&quot;&gt;+ ConsultarLivro(int) : Livro&lt;/p&gt;&lt;p style=&quot;margin:0px;margin-left:4px;&quot;&gt;+ ConsultarHistorico(): Historico&lt;/p&gt;&lt;p style=&quot;margin:0px;margin-left:4px;&quot;&gt;+ DoarLivro(Livro) : bool&lt;/p&gt;&lt;p style=&quot;margin:0px;margin-left:4px;&quot;&gt;+ VenderLivro(Livro) : bool&lt;/p&gt;" style="verticalAlign=top;align=left;overflow=fill;fontSize=12;fontFamily=Helvetica;html=1;rounded=0;shadow=0;comic=0;labelBackgroundColor=none;strokeWidth=1" vertex="1" parent="WIyWlLk6GJQsqaUBKTNV-1">
          <mxGeometry x="1993" y="610" width="210" height="200" as="geometry" />
        </mxCell>
        <mxCell id="RFLqyy4pMrzeT3K8V6dZ-13" style="edgeStyle=orthogonalEdgeStyle;rounded=0;orthogonalLoop=1;jettySize=auto;html=1;exitX=0.5;exitY=0;exitDx=0;exitDy=0;" edge="1" parent="WIyWlLk6GJQsqaUBKTNV-1" source="RFLqyy4pMrzeT3K8V6dZ-1" target="RFLqyy4pMrzeT3K8V6dZ-0">
          <mxGeometry relative="1" as="geometry" />
        </mxCell>
        <mxCell id="RFLqyy4pMrzeT3K8V6dZ-1" value="&lt;p style=&quot;margin:0px;margin-top:4px;text-align:center;&quot;&gt;&lt;br&gt;&lt;b&gt;Pessoa&lt;/b&gt;&lt;/p&gt;&lt;hr size=&quot;1&quot;&gt;&lt;p style=&quot;margin: 0px 0px 0px 4px;&quot;&gt;+ Codigo { get; set; } : int&lt;/p&gt;&lt;p style=&quot;margin: 0px 0px 0px 4px;&quot;&gt;+ CPF { get; set; } : string&lt;/p&gt;&amp;nbsp;+ Email { get; set; } : string&amp;nbsp;&lt;br&gt;&amp;nbsp;+ Nome { get; set; } : string&lt;br&gt;&amp;nbsp;+ Senha { get; set; } : string&lt;br&gt;&lt;hr size=&quot;1&quot;&gt;&lt;p style=&quot;margin:0px;margin-left:4px;&quot;&gt;&lt;br&gt;&lt;/p&gt;&lt;p style=&quot;margin:0px;margin-left:4px;&quot;&gt;&lt;br&gt;&lt;/p&gt;" style="verticalAlign=top;align=left;overflow=fill;fontSize=12;fontFamily=Helvetica;html=1;rounded=0;shadow=0;comic=0;labelBackgroundColor=none;strokeWidth=1" vertex="1" parent="WIyWlLk6GJQsqaUBKTNV-1">
          <mxGeometry x="2013" y="890" width="170" height="140" as="geometry" />
        </mxCell>
        <mxCell id="RFLqyy4pMrzeT3K8V6dZ-2" style="edgeStyle=orthogonalEdgeStyle;rounded=0;orthogonalLoop=1;jettySize=auto;html=1;exitX=0.5;exitY=0;exitDx=0;exitDy=0;entryX=0.25;entryY=1;entryDx=0;entryDy=0;endArrow=block;endFill=0;" edge="1" parent="WIyWlLk6GJQsqaUBKTNV-1" source="RFLqyy4pMrzeT3K8V6dZ-3" target="RFLqyy4pMrzeT3K8V6dZ-1">
          <mxGeometry relative="1" as="geometry">
            <mxPoint x="2077" y="1150" as="targetPoint" />
          </mxGeometry>
        </mxCell>
        <mxCell id="RFLqyy4pMrzeT3K8V6dZ-3" value="&lt;p style=&quot;margin:0px;margin-top:4px;text-align:center;&quot;&gt;&lt;br&gt;&lt;b&gt;Admin&lt;/b&gt;&lt;/p&gt;&lt;hr size=&quot;1&quot;&gt;&lt;p style=&quot;margin: 0px 0px 0px 4px;&quot;&gt;&lt;/p&gt;&amp;nbsp;+ GerenciamentoServico { get; set; } : GerenciamentoServico&amp;nbsp;&lt;br&gt;&lt;hr size=&quot;1&quot;&gt;&lt;p style=&quot;margin:0px;margin-left:4px;&quot;&gt;&lt;br&gt;&lt;/p&gt;&lt;p style=&quot;margin:0px;margin-left:4px;&quot;&gt;&lt;br&gt;&lt;/p&gt;" style="verticalAlign=top;align=left;overflow=fill;fontSize=12;fontFamily=Helvetica;html=1;rounded=0;shadow=0;comic=0;labelBackgroundColor=none;strokeWidth=1" vertex="1" parent="WIyWlLk6GJQsqaUBKTNV-1">
          <mxGeometry x="1737" y="1200" width="340" height="140" as="geometry" />
        </mxCell>
        <mxCell id="RFLqyy4pMrzeT3K8V6dZ-4" style="edgeStyle=orthogonalEdgeStyle;rounded=0;orthogonalLoop=1;jettySize=auto;html=1;exitX=0.5;exitY=0;exitDx=0;exitDy=0;entryX=0.75;entryY=1;entryDx=0;entryDy=0;endArrow=block;endFill=0;" edge="1" parent="WIyWlLk6GJQsqaUBKTNV-1" source="RFLqyy4pMrzeT3K8V6dZ-5" target="RFLqyy4pMrzeT3K8V6dZ-1">
          <mxGeometry relative="1" as="geometry">
            <mxPoint x="2097" y="1170" as="targetPoint" />
          </mxGeometry>
        </mxCell>
        <mxCell id="RFLqyy4pMrzeT3K8V6dZ-5" value="&lt;p style=&quot;margin:0px;margin-top:4px;text-align:center;&quot;&gt;&lt;br&gt;&lt;b&gt;Usuario&lt;/b&gt;&lt;/p&gt;&lt;hr size=&quot;1&quot;&gt;&lt;p style=&quot;margin: 0px 0px 0px 4px;&quot;&gt;&lt;/p&gt;&amp;nbsp;+ CriteriosDoacoes { get; set; } : List&amp;lt;CriteriosDoacao&amp;gt;&amp;nbsp;&lt;br&gt;&amp;nbsp;+ Inventario { get; set; } : Inventario&amp;nbsp;&lt;br&gt;&amp;nbsp;+ VantagensPontuacoes { get; set; } : List&amp;lt;VantagensPontuacao&amp;gt;&amp;nbsp;&lt;br&gt;&lt;hr size=&quot;1&quot;&gt;&lt;p style=&quot;margin:0px;margin-left:4px;&quot;&gt;&lt;br&gt;&lt;/p&gt;&lt;p style=&quot;margin:0px;margin-left:4px;&quot;&gt;&lt;br&gt;&lt;/p&gt;" style="verticalAlign=top;align=left;overflow=fill;fontSize=12;fontFamily=Helvetica;html=1;rounded=0;shadow=0;comic=0;labelBackgroundColor=none;strokeWidth=1" vertex="1" parent="WIyWlLk6GJQsqaUBKTNV-1">
          <mxGeometry x="2097" y="1200" width="360" height="140" as="geometry" />
        </mxCell>
        <mxCell id="RFLqyy4pMrzeT3K8V6dZ-14" style="edgeStyle=orthogonalEdgeStyle;rounded=0;orthogonalLoop=1;jettySize=auto;html=1;exitX=0.5;exitY=1;exitDx=0;exitDy=0;" edge="1" parent="WIyWlLk6GJQsqaUBKTNV-1" source="RFLqyy4pMrzeT3K8V6dZ-6" target="RFLqyy4pMrzeT3K8V6dZ-0">
          <mxGeometry relative="1" as="geometry" />
        </mxCell>
        <mxCell id="RFLqyy4pMrzeT3K8V6dZ-6" value="&lt;p style=&quot;margin:0px;margin-top:4px;text-align:center;&quot;&gt;&lt;br&gt;&lt;b&gt;Historico&lt;/b&gt;&lt;/p&gt;&lt;hr size=&quot;1&quot;&gt;&lt;p style=&quot;margin: 0px 0px 0px 4px;&quot;&gt;-&amp;nbsp;_pessoa : Pessoa&lt;br&gt;&lt;/p&gt;&lt;hr size=&quot;1&quot;&gt;&lt;p style=&quot;margin:0px;margin-left:4px;&quot;&gt;+ void RegistrarHistorico(Pessoa pessoa, string acao) : void&lt;br&gt;&lt;/p&gt;&lt;p style=&quot;margin:0px;margin-left:4px;&quot;&gt;&lt;br&gt;&lt;/p&gt;" style="verticalAlign=top;align=left;overflow=fill;fontSize=12;fontFamily=Helvetica;html=1;rounded=0;shadow=0;comic=0;labelBackgroundColor=none;strokeWidth=1" vertex="1" parent="WIyWlLk6GJQsqaUBKTNV-1">
          <mxGeometry x="1928" y="351" width="340" height="140" as="geometry" />
        </mxCell>
        <mxCell id="RFLqyy4pMrzeT3K8V6dZ-7" value="&lt;p style=&quot;margin:0px;margin-top:4px;text-align:center;&quot;&gt;&lt;br&gt;&lt;b&gt;InventarioServico&lt;/b&gt;&lt;/p&gt;&lt;hr size=&quot;1&quot;&gt;&lt;p style=&quot;margin: 0px 0px 0px 4px;&quot;&gt;-&amp;nbsp;_usuario : Usuario&lt;/p&gt;&lt;p style=&quot;margin: 0px 0px 0px 4px;&quot;&gt;- _admin : Admin&lt;/p&gt;&lt;hr size=&quot;1&quot;&gt;&lt;p style=&quot;margin:0px;margin-left:4px;&quot;&gt;+ ObterBiblioteca(Admin admin) : Biblioteca&lt;/p&gt;&lt;p style=&quot;margin:0px;margin-left:4px;&quot;&gt;+ ObterInventario(Usuario usuario) : Inventario&lt;/p&gt;&lt;p style=&quot;margin:0px;margin-left:4px;&quot;&gt;+ ObterLivrosSelecionados(string filtroPesquisa) : List&amp;lt;Livro&amp;gt;&lt;/p&gt;&lt;p style=&quot;margin:0px;margin-left:4px;&quot;&gt;&lt;br&gt;&lt;/p&gt;" style="verticalAlign=top;align=left;overflow=fill;fontSize=12;fontFamily=Helvetica;html=1;rounded=0;shadow=0;comic=0;labelBackgroundColor=none;strokeWidth=1" vertex="1" parent="WIyWlLk6GJQsqaUBKTNV-1">
          <mxGeometry x="2090" y="1490" width="340" height="140" as="geometry" />
        </mxCell>
        <mxCell id="RFLqyy4pMrzeT3K8V6dZ-19" style="edgeStyle=orthogonalEdgeStyle;rounded=0;orthogonalLoop=1;jettySize=auto;html=1;exitX=0;exitY=0.5;exitDx=0;exitDy=0;entryX=1;entryY=0.25;entryDx=0;entryDy=0;" edge="1" parent="WIyWlLk6GJQsqaUBKTNV-1" source="RFLqyy4pMrzeT3K8V6dZ-8" target="RFLqyy4pMrzeT3K8V6dZ-5">
          <mxGeometry relative="1" as="geometry" />
        </mxCell>
        <mxCell id="RFLqyy4pMrzeT3K8V6dZ-8" value="&lt;p style=&quot;margin:0px;margin-top:4px;text-align:center;&quot;&gt;&lt;br&gt;&lt;b&gt;VantagensPontuacao&lt;/b&gt;&lt;/p&gt;&lt;hr size=&quot;1&quot;&gt;&lt;p style=&quot;margin: 0px 0px 0px 4px;&quot;&gt;+ Codigo { get; set; } : int&lt;/p&gt;&lt;p style=&quot;margin: 0px 0px 0px 4px;&quot;&gt;+ DescricaoVantagemDoacao { get; set; } : string&lt;/p&gt;&amp;nbsp;+ NomeVantagemDoacao { get; set; } : string&amp;nbsp;&lt;br&gt;&amp;nbsp;+ PontosNecessarios { get; set; } : int&lt;br&gt;&amp;nbsp;+ PorcentagemDescontoCompra { get; set; } : decimal&lt;br&gt;&amp;nbsp;+&amp;nbsp;QuantidadeLivrosObtencaoDoacao {get; set; } :string&lt;br&gt;&lt;hr size=&quot;1&quot;&gt;&lt;p style=&quot;margin:0px;margin-left:4px;&quot;&gt;&lt;br&gt;&lt;/p&gt;&lt;p style=&quot;margin:0px;margin-left:4px;&quot;&gt;&lt;br&gt;&lt;/p&gt;" style="verticalAlign=top;align=left;overflow=fill;fontSize=12;fontFamily=Helvetica;html=1;rounded=0;shadow=0;comic=0;labelBackgroundColor=none;strokeWidth=1" vertex="1" parent="WIyWlLk6GJQsqaUBKTNV-1">
          <mxGeometry x="2540" y="1120" width="310" height="140" as="geometry" />
        </mxCell>
        <mxCell id="RFLqyy4pMrzeT3K8V6dZ-20" style="edgeStyle=orthogonalEdgeStyle;rounded=0;orthogonalLoop=1;jettySize=auto;html=1;exitX=0;exitY=0.5;exitDx=0;exitDy=0;entryX=1;entryY=0.75;entryDx=0;entryDy=0;" edge="1" parent="WIyWlLk6GJQsqaUBKTNV-1" source="RFLqyy4pMrzeT3K8V6dZ-9" target="RFLqyy4pMrzeT3K8V6dZ-5">
          <mxGeometry relative="1" as="geometry" />
        </mxCell>
        <mxCell id="RFLqyy4pMrzeT3K8V6dZ-9" value="&lt;p style=&quot;margin:0px;margin-top:4px;text-align:center;&quot;&gt;&lt;br&gt;&lt;b&gt;CriteriosDoacao&lt;/b&gt;&lt;br&gt;&lt;/p&gt;&lt;hr size=&quot;1&quot;&gt;&lt;p style=&quot;margin: 0px 0px 0px 4px;&quot;&gt;+ Codigo { get; set; } : int&lt;/p&gt;&lt;p style=&quot;margin: 0px 0px 0px 4px;&quot;&gt;+ DescricaoCriterioDoacao { get; set; } : string&lt;/p&gt;&amp;nbsp;+ LivrosHabilitados { get; set; } : List&amp;lt;Livro&amp;gt;&lt;br&gt;&amp;nbsp;+ NomeCriterioDoacao { get; set; } : string&lt;p style=&quot;margin:0px;margin-left:4px;&quot;&gt;&lt;br&gt;&lt;/p&gt;&lt;p style=&quot;margin:0px;margin-left:4px;&quot;&gt;&lt;br&gt;&lt;/p&gt;" style="verticalAlign=top;align=left;overflow=fill;fontSize=12;fontFamily=Helvetica;html=1;rounded=0;shadow=0;comic=0;labelBackgroundColor=none;strokeWidth=1" vertex="1" parent="WIyWlLk6GJQsqaUBKTNV-1">
          <mxGeometry x="2540" y="1280" width="310" height="130" as="geometry" />
        </mxCell>
        <mxCell id="RFLqyy4pMrzeT3K8V6dZ-21" style="edgeStyle=orthogonalEdgeStyle;rounded=0;orthogonalLoop=1;jettySize=auto;html=1;exitX=1;exitY=0.5;exitDx=0;exitDy=0;" edge="1" parent="WIyWlLk6GJQsqaUBKTNV-1" source="RFLqyy4pMrzeT3K8V6dZ-10" target="RFLqyy4pMrzeT3K8V6dZ-3">
          <mxGeometry relative="1" as="geometry" />
        </mxCell>
        <mxCell id="RFLqyy4pMrzeT3K8V6dZ-10" value="&lt;p style=&quot;margin:0px;margin-top:4px;text-align:center;&quot;&gt;&lt;br&gt;&lt;b&gt;GerenciamentoServico&lt;/b&gt;&lt;/p&gt;&lt;hr size=&quot;1&quot;&gt;&lt;p style=&quot;margin: 0px 0px 0px 4px;&quot;&gt;&lt;span style=&quot;background-color: initial;&quot;&gt;- _admin : Admin&lt;/span&gt;&lt;/p&gt;&lt;hr size=&quot;1&quot;&gt;&lt;p style=&quot;margin:0px;margin-left:4px;&quot;&gt;&lt;/p&gt;&amp;nbsp;&lt;span style=&quot;background-color: initial;&quot;&gt;+ Adicionar(Usuario usuario) : void&lt;br&gt;&lt;/span&gt;&amp;nbsp;+ AdicionarCriterioDoacao(List&amp;lt;CriteriosDoacao&amp;gt; criteriosDoacoes) : void&lt;br&gt;&amp;nbsp;+ AdicionarVatagensPontuacao(List&amp;lt;VantagensPontuacao&amp;gt; criteriosVantagensPontuacao) : void&lt;br&gt;&amp;nbsp;+ Atualizar(Biblioteca biblioteca) : void&lt;br&gt;&amp;nbsp;+ Atualizar(Usuario usuario) : void&lt;br&gt;&amp;nbsp;+ Remover(Usuario usuario) : void&lt;br&gt;&amp;nbsp;+ RemoverCriterioDoacao(List&amp;lt;CriteriosDoacao&amp;gt; criteriosDoacoes) : void&lt;br&gt;&amp;nbsp;+ RemoverVatagensPontuacao(List&amp;lt;VantagensPontuacao&amp;gt; criteriosVantagensPontuacao) : void&lt;br&gt;&lt;br&gt;" style="verticalAlign=top;align=left;overflow=fill;fontSize=12;fontFamily=Helvetica;html=1;rounded=0;shadow=0;comic=0;labelBackgroundColor=none;strokeWidth=1" vertex="1" parent="WIyWlLk6GJQsqaUBKTNV-1">
          <mxGeometry x="1124" y="1169" width="530" height="202" as="geometry" />
        </mxCell>
        <mxCell id="RFLqyy4pMrzeT3K8V6dZ-18" style="edgeStyle=orthogonalEdgeStyle;rounded=0;orthogonalLoop=1;jettySize=auto;html=1;exitX=1;exitY=0.5;exitDx=0;exitDy=0;entryX=0;entryY=0.5;entryDx=0;entryDy=0;" edge="1" parent="WIyWlLk6GJQsqaUBKTNV-1" source="RFLqyy4pMrzeT3K8V6dZ-17" target="RFLqyy4pMrzeT3K8V6dZ-0">
          <mxGeometry relative="1" as="geometry" />
        </mxCell>
        <mxCell id="RFLqyy4pMrzeT3K8V6dZ-17" value="&lt;p style=&quot;margin:0px;margin-top:4px;text-align:center;&quot;&gt;&lt;br&gt;&lt;b&gt;Livro&lt;/b&gt;&lt;/p&gt;&lt;hr size=&quot;1&quot;&gt;&lt;p style=&quot;margin: 0px 0px 0px 4px;&quot;&gt;+ Codigo { get; set; } : int&lt;/p&gt;&lt;p style=&quot;margin: 0px 0px 0px 4px;&quot;&gt;+ Ano { get; set; } : int&lt;/p&gt;&amp;nbsp;+ Autor { get; set; } : string&amp;nbsp;&lt;br&gt;&amp;nbsp;+ Edicao { get; set; } : int&lt;br&gt;&amp;nbsp;+ Editora { get; set; } : string&lt;br&gt;&amp;nbsp;+&amp;nbsp;ISBN {get; set; } : string&lt;br&gt;&amp;nbsp;+ Nota { get; set; } : decimal&lt;br&gt;&amp;nbsp;+&amp;nbsp;Titulo {get; set; } : string&lt;br&gt;&lt;hr size=&quot;1&quot;&gt;&lt;p style=&quot;margin:0px;margin-left:4px;&quot;&gt;&lt;br&gt;&lt;/p&gt;&lt;p style=&quot;margin:0px;margin-left:4px;&quot;&gt;&lt;br&gt;&lt;/p&gt;" style="verticalAlign=top;align=left;overflow=fill;fontSize=12;fontFamily=Helvetica;html=1;rounded=0;shadow=0;comic=0;labelBackgroundColor=none;strokeWidth=1" vertex="1" parent="WIyWlLk6GJQsqaUBKTNV-1">
          <mxGeometry x="1670" y="610" width="180" height="200" as="geometry" />
        </mxCell>
      </root>
    </mxGraphModel>
  </diagram>
</mxfile>
